<svg
   viewBox="0 0 249 497"
   width="25"
   height="50">
<g transform="translate(18,0)"><path
       style="fill:#111111"
       d="m 53.5,476 c 0,14 6.833,21 20.5,21 13.667,0 20.5,-7 20.5,-21 l 0,-189 21,0 0,189 c 0,14 6.834,21 20.5,21 13.667,0 20.5,-7 20.5,-21 l 0,-322 10,0 0,116 c 0,7.334 2.5,12.667 7.5,16 5,3.333 10.167,3.333 15.5,0 5.333,-3.333 8,-8.667 8,-16 l 0,-125 c 0,-13.334 -4.5,-23.667 -13.5,-31 -9,-7.333 -21.5,-11 -37.5,-11 l -82,0 c -15.333,0 -27.833,3.333 -37.5,10 -9.667,6.667 -14.5,17 -14.5,31 l 0,133 c 0,6 2.667,10.333 8,13 5.333,2.667 10.5,2.667 15.5,0 5,-2.667 7.5,-7 7.5,-13 l 0,-123 10,0 0,322 z"/><path
       style="fill:#111111"
       d="m 61.5,42.5 c 0,11.667 4.167,21.667 12.5,30 8.333,8.333 18.333,12.5 30,12.5 11.667,0 21.667,-4.167 30,-12.5 C 142.333,64.167 146.5,54 146.5,42 146.5,30.665 142.333,20.832 134,12.5 125.667,4.167 115.667,0 104,0 92.333,0 82.333,4.167 74,12.5 65.667,20.833 61.5,30.833 61.5,42.5 Z"/></g>
</svg>
