<svg
   viewBox="0 0 249 497"
   width="25"
   height="50"><g>
<path  style="fill:#111111"
       d="m 226.5,323 -60,-166 c -0.667,-0.667 -1,-1.333 -1,-2 0,-3.333 1.667,-5 5,-5 2,0 3.333,1.333 4,4 l 41,107 c 3.337,7.333 10.67,11 22,11 4,0 6.833,-3 8.5,-9 1.667,-6 2.5,-10 2.5,-12 l -42,-103 c -1.333,-12.667 -7.333,-23.333 -18,-32 -10.667,-8.667 -23,-13 -37,-13 l -53,0 C 84.5,103 72,107.5 61,116.5 50,125.5 43.5,136 41.5,148 l -39,104 c -1.333,2 -1,5.833 1,11.5 2,5.667 5,8.5 9,8.5 12.667,0 20,-3.333 22,-10 l 40,-108 c 0.667,-2 2,-3 4,-3 2.667,0 4,1.333 4,4 l 0,1 -59,167 0,13 c 0,1.334 1.667,3.668 5,7 3.338,3.333 5.671,5 7,5 l 38,0 0,129 c 0,5.333 2.167,10 6.5,14 4.336,4 9.169,6 14.5,6 5.333,0 10,-2 14,-6 4,-4 6,-8.667 6,-14 l 0,-134 c 0,-0.667 1.833,-1.167 5.5,-1.5 3.667,-0.333 7.167,-0.333 10.5,0 3.333,0.337 5,0.837 5,1.5 l 0,133 c 0,5.333 2,10.167 6,14.5 4,4.333 8.833,6.5 14.5,6.5 5.667,0 10.5,-2.167 14.5,-6.5 4,-4.333 6,-9.167 6,-14.5 l 0,-128 39,0 c 2,0 4.333,-1.667 7,-5 2.667,-3.333 4,-5.667 4,-7 l 0,-3 0,-4 0,-4 0,-2 z"/><path
       style="fill:#111111"
       d="m 81.5,42.5 c 0,11.667 4.167,21.667 12.5,30 8.333,8.333 18.333,12.5 30,12.5 11.667,0 21.667,-4.167 30,-12.5 8.333,-8.333 12.5,-18.333 12.5,-30 0,-11.667 -4.167,-21.667 -12.5,-30 C 145.667,4.167 135.667,0 124,0 112.333,0 102.333,4.167 94,12.5 85.667,20.833 81.5,30.833 81.5,42.5 Z"/></g>
</svg>
